<?xml version="1.0" ?>
<!-- Uploaded to: SVG Repo, www.svgrepo.com, Generator: SVG Repo Mixer Tools -->
<svg width="800px" height="800px" viewBox="0 0 512 512" id="Layer_1" version="1.1" xml:space="preserve" xmlns="http://www.w3.org/2000/svg" xmlns:xlink="http://www.w3.org/1999/xlink">
<style type="text/css">
	.st0{fill:#6040EC;}
	.st1{fill:#0BDC49;}
</style>
<g>
<g>
<path class="st1" d="M416,466H96c-6.6,0-12-5.4-12-12s5.4-12,12-12h320c6.6,0,12,5.4,12,12S422.6,466,416,466z"/>
</g>
<g>
<path class="st0" d="M197.1,59.3l-0.2-0.6l-0.3-0.6c-3.3-7.5-10.6-12.2-18.7-12.1c-8.1,0.1-15.3,5.1-18.3,12.7L94.9,228.2h-0.6    v1.7L42.8,364.8c-2.4,6.2,0.7,13.1,6.9,15.5c6.2,2.4,13.1-0.7,15.5-6.9l46.2-121.1H233l38.2,120.9c1.6,5.1,6.3,8.4,11.4,8.4    c1.2,0,2.4-0.2,3.6-0.6c6.3-2,9.8-8.7,7.8-15.1L197.1,59.3z M120.6,228.2l57.3-150.1l47.5,150.1H120.6z"/>
<path class="st0" d="M469.8,261.6c0-22.2-5-40.5-14.9-54.3c-13.4-18.7-34.7-28.2-63.4-28.2c-23.1,0-45.9,6.2-62.8,17l-1.9,1.2    c-5.6,3.5-7.3,10.9-3.8,16.6c3.5,5.6,10.9,7.3,16.6,3.8l2-1.3c13.1-8.4,31.3-13.3,49.9-13.3c33,0,50.6,15.6,53.8,47.5    c-59.4-7.8-93.5-1.6-116.1,20.6c-12.9,12.6-19.4,28.7-19.4,47.9c0,16.2,6,31.4,17,42.8c15.4,16.1,35.1,19.5,48.9,19.5    c14.5,0,51.2-1.4,71.8-2.2c12.8-0.5,22.7-10.9,22.5-23.6C469.9,348,469.8,261.6,469.8,261.6z M375.7,357.5    c-28.8,0-41.9-19.9-41.9-38.3c0-12.6,4-22.7,12.3-30.8c8.9-8.8,22.8-16.9,56.1-16.9c11.9,0,26.2,1,43.6,3.5c0,0,0.1,72.5,0.2,80.4    C429.3,356,390.2,357.5,375.7,357.5z"/>
</g>
</g>
</svg>